<?xml version="1.0" standalone="no"?><!DOCTYPE svg PUBLIC "-//W3C//DTD SVG 1.1//EN" "http://www.w3.org/Graphics/SVG/1.1/DTD/svg11.dtd"><svg t="1600487225522" class="icon" viewBox="0 0 1024 1024" version="1.1" xmlns="http://www.w3.org/2000/svg" p-id="904" xmlns:xlink="http://www.w3.org/1999/xlink" width="200" height="200"><defs><style type="text/css"></style></defs><path d="M865.28 752.64H486.4c-11.264 0-20.48-9.216-20.48-20.48s9.216-20.48 20.48-20.48h378.88c11.264 0 20.48 9.216 20.48 20.48s-9.216 20.48-20.48 20.48zM865.28 855.04H158.72c-11.264 0-20.48-9.216-20.48-20.48s9.216-20.48 20.48-20.48h706.56c11.264 0 20.48 9.216 20.48 20.48s-9.216 20.48-20.48 20.48zM174.08 798.208l52.224-132.096 2.56-2.56 439.296-486.4c11.264-12.288 26.112-19.968 41.984-21.504 16.896-2.048 32.768 3.072 44.544 13.824 11.776 10.752 18.432 26.112 18.432 43.008 0 15.872-6.144 31.232-17.408 43.52l-442.368 489.984L174.08 798.208z m87.552-110.08l-15.36 39.424 43.008-16.384 435.712-482.816c4.608-4.608 6.656-10.752 6.656-16.384 0-3.072-0.512-8.192-5.12-12.288-4.096-4.096-9.728-4.096-12.8-3.584-5.632 0.512-11.264 3.584-15.872 8.704l-436.224 483.328z" p-id="905" fill="#ffffff"></path></svg>